<svg xmlns="http://www.w3.org/2000/svg" width="657" height="765" viewBox="0 0 657 765" fill="none"><metadata><rdf:RDF xmlns:rdf="http://www.w3.org/1999/02/22-rdf-syntax-ns#" xmlns:dc="http://purl.org/dc/elements/1.1/"><rdf:Description><dc:creator>RealFaviconGenerator</dc:creator><dc:source>https://realfavicongenerator.net</dc:source></rdf:Description></rdf:RDF></metadata><g filter="url(#filter0_d_7_334)">
<path d="M217.348 218.17C178.21 218.17 159.283 199.92 159.283 161.82V68.6495C159.283 30.2288 178.21 12.2991 217.348 12.2991H444.154C483.613 12.2991 502.219 30.2288 502.219 68.6495V161.82C502.219 199.92 483.613 218.17 444.154 218.17H217.348ZM130.411 751.579C110.521 751.579 100.897 739.093 100.897 723.082C100.897 718.919 101.859 715.4 102.501 711.558L152.867 521.695H134.26C89.6693 521.695 62.4011 495.44 62.4011 450.936V326.389H42.5115C23.905 326.389 11.073 313.902 11.073 296.612C11.073 279.003 23.2634 266.516 41.2283 266.516H614.177C632.787 266.516 645.297 278.683 645.297 296.612C645.297 313.902 632.464 326.389 612.896 326.389H500.936V349.441C500.936 386.581 482.008 404.831 443.833 404.831H216.706C178.852 404.831 159.925 386.581 159.925 349.441V326.389H116.296V409.313C116.296 435.888 131.694 449.976 159.283 449.976H526.921C549.377 449.976 564.776 464.704 564.776 486.155C564.776 506.326 548.093 521.695 525.638 521.695H505.106L555.472 711.558C556.755 715.4 557.076 719.563 557.076 723.082C557.076 739.732 546.49 751.579 527.562 751.579C511.202 751.579 502.54 742.612 498.048 726.284L471.743 626.709H186.23L159.925 726.284C155.433 742.612 147.734 751.579 130.411 751.579ZM201.629 569.722H456.344L443.833 521.695H214.14L201.629 569.722Z" fill="url(#paint0_linear_7_334)" fill-opacity="0.75" shape-rendering="crispEdges"></path>
<path d="M41.2283 269.016H614.177C622.929 269.016 630.054 271.868 634.976 276.636C639.892 281.398 642.797 288.249 642.797 296.613C642.797 304.613 639.842 311.379 634.727 316.157C629.603 320.945 622.144 323.889 612.896 323.889H498.436V349.441C498.436 367.613 493.809 380.698 484.961 389.268C476.097 397.852 462.563 402.331 443.834 402.331H216.707C198.142 402.331 184.688 397.855 175.863 389.272C167.051 380.701 162.425 367.613 162.425 349.441V323.889H113.796V409.314C113.796 423.084 117.797 433.992 125.733 441.434C133.643 448.851 145.09 452.476 159.283 452.476H526.921C537.596 452.476 546.412 455.969 552.542 461.828C558.663 467.68 562.276 476.051 562.276 486.156C562.276 504.734 546.934 519.195 525.637 519.195H501.856L502.69 522.335L553.055 712.199L553.076 712.276L553.1 712.35C554.262 715.826 554.576 719.685 554.576 723.082C554.576 730.874 552.107 737.321 547.643 741.812C543.186 746.296 536.493 749.078 527.562 749.078C519.871 749.078 514.251 746.987 510.024 743.194C505.743 739.351 502.635 733.534 500.459 725.621L474.16 626.071L473.668 624.209H184.305L183.813 626.071L157.514 725.621C155.321 733.595 152.437 739.393 148.286 743.215C144.207 746.97 138.614 749.078 130.411 749.078C121.007 749.078 114.334 746.142 110.004 741.608C105.651 737.05 103.397 730.597 103.397 723.082C103.397 719.237 104.255 716.174 104.942 712.105L155.283 522.335L156.116 519.195H134.26C112.453 519.195 95.1751 512.783 83.3582 501.218C71.5485 489.66 64.9011 472.671 64.9011 450.936V323.889H42.5115C33.7762 323.889 26.5579 320.966 21.5408 316.176C16.5302 311.392 13.573 304.615 13.573 296.613C13.573 288.398 16.4066 281.531 21.1863 276.724C25.9636 271.92 32.8421 269.016 41.2283 269.016ZM211.72 521.065L199.21 569.091L198.394 572.222H459.579L458.763 569.091L446.253 521.065L445.765 519.195H212.208L211.72 521.065ZM217.348 14.7991H444.154C463.557 14.7991 477.316 19.212 486.244 27.8616C495.156 36.4956 499.719 49.8041 499.719 68.6497V161.82C499.719 180.499 495.158 193.814 486.24 202.491C477.308 211.182 463.546 215.67 444.154 215.67H217.348C198.122 215.67 184.355 211.184 175.379 202.488C166.418 193.806 161.783 180.489 161.783 161.82V68.6497C161.783 49.815 166.421 36.5039 175.375 27.8655C184.347 19.2099 198.111 14.7991 217.348 14.7991Z" stroke="url(#paint1_radial_7_334)" stroke-width="5" shape-rendering="crispEdges"></path>
<path d="M41.2283 269.016H614.177C622.929 269.016 630.054 271.868 634.976 276.636C639.892 281.398 642.797 288.249 642.797 296.613C642.797 304.613 639.842 311.379 634.727 316.157C629.603 320.945 622.144 323.889 612.896 323.889H498.436V349.441C498.436 367.613 493.809 380.698 484.961 389.268C476.097 397.852 462.563 402.331 443.834 402.331H216.707C198.142 402.331 184.688 397.855 175.863 389.272C167.051 380.701 162.425 367.613 162.425 349.441V323.889H113.796V409.314C113.796 423.084 117.797 433.992 125.733 441.434C133.643 448.851 145.09 452.476 159.283 452.476H526.921C537.596 452.476 546.412 455.969 552.542 461.828C558.663 467.68 562.276 476.051 562.276 486.156C562.276 504.734 546.934 519.195 525.637 519.195H501.856L502.69 522.335L553.055 712.199L553.076 712.276L553.1 712.35C554.262 715.826 554.576 719.685 554.576 723.082C554.576 730.874 552.107 737.321 547.643 741.812C543.186 746.296 536.493 749.078 527.562 749.078C519.871 749.078 514.251 746.987 510.024 743.194C505.743 739.351 502.635 733.534 500.459 725.621L474.16 626.071L473.668 624.209H184.305L183.813 626.071L157.514 725.621C155.321 733.595 152.437 739.393 148.286 743.215C144.207 746.97 138.614 749.078 130.411 749.078C121.007 749.078 114.334 746.142 110.004 741.608C105.651 737.05 103.397 730.597 103.397 723.082C103.397 719.237 104.255 716.174 104.942 712.105L155.283 522.335L156.116 519.195H134.26C112.453 519.195 95.1751 512.783 83.3582 501.218C71.5485 489.66 64.9011 472.671 64.9011 450.936V323.889H42.5115C33.7762 323.889 26.5579 320.966 21.5408 316.176C16.5302 311.392 13.573 304.615 13.573 296.613C13.573 288.398 16.4066 281.531 21.1863 276.724C25.9636 271.92 32.8421 269.016 41.2283 269.016ZM211.72 521.065L199.21 569.091L198.394 572.222H459.579L458.763 569.091L446.253 521.065L445.765 519.195H212.208L211.72 521.065ZM217.348 14.7991H444.154C463.557 14.7991 477.316 19.212 486.244 27.8616C495.156 36.4956 499.719 49.8041 499.719 68.6497V161.82C499.719 180.499 495.158 193.814 486.24 202.491C477.308 211.182 463.546 215.67 444.154 215.67H217.348C198.122 215.67 184.355 211.184 175.379 202.488C166.418 193.806 161.783 180.489 161.783 161.82V68.6497C161.783 49.815 166.421 36.5039 175.375 27.8655C184.347 19.2099 198.111 14.7991 217.348 14.7991Z" stroke="url(#paint2_radial_7_334)" stroke-width="5" shape-rendering="crispEdges"></path>
</g><defs>
<filter id="filter0_d_7_334" x="-13.927" y="-8.70093" width="684.224" height="789.28" filterUnits="userSpaceOnUse" color-interpolation-filters="sRGB">
<feFlood flood-opacity="0" result="BackgroundImageFix"></feFlood>
<feColorMatrix in="SourceAlpha" type="matrix" values="0 0 0 0 0 0 0 0 0 0 0 0 0 0 0 0 0 0 127 0" result="hardAlpha"></feColorMatrix>
<feOffset dy="4"></feOffset>
<feGaussianBlur stdDeviation="12.5"></feGaussianBlur>
<feComposite in2="hardAlpha" operator="out"></feComposite>
<feColorMatrix type="matrix" values="0 0 0 0 0.194896 0 0 0 0 0.326923 0 0 0 0 0.185466 0 0 0 0.25 0"></feColorMatrix>
<feBlend mode="normal" in2="BackgroundImageFix" result="effect1_dropShadow_7_334"></feBlend>
<feBlend mode="normal" in="BackgroundImageFix" in2="effect1_dropShadow_7_334" result="BackgroundImageFix"></feBlend>
<feBlend mode="normal" in="SourceGraphic" in2="BackgroundImageFix" result="shape"></feBlend>
</filter>
<linearGradient id="paint0_linear_7_334" x1="11.073" y1="66.8654" x2="645.297" y2="697.012" gradientUnits="userSpaceOnUse">
<stop stop-color="#36E161"></stop>
<stop offset="1" stop-color="#278F42"></stop>
</linearGradient>
<radialGradient id="paint1_radial_7_334" cx="0" cy="0" r="1" gradientUnits="userSpaceOnUse" gradientTransform="translate(689.5 851) rotate(-128.626) scale(786.569 492.414)">
<stop stop-color="white" stop-opacity="0.5"></stop>
<stop offset="0.577968" stop-color="white" stop-opacity="0.1"></stop>
<stop offset="1" stop-color="white" stop-opacity="0"></stop>
</radialGradient>
<radialGradient id="paint2_radial_7_334" cx="0" cy="0" r="1" gradientUnits="userSpaceOnUse" gradientTransform="translate(35 -76) rotate(56.8039) scale(788.12 1060.57)">
<stop stop-color="white" stop-opacity="0.5"></stop>
<stop offset="0.506661" stop-color="white" stop-opacity="0.1"></stop>
<stop offset="1" stop-color="white" stop-opacity="0"></stop>
</radialGradient>
</defs></svg>